<svg xmlns="http://www.w3.org/2000/svg" viewBox="0 0 96 128" fill="none">
  <filter id="shadow" x="-30%" y="-20%" width="160%" height="150%" color-interpolation-filters="sRGB">
    <feDropShadow dx="0" dy="7" stdDeviation="5" flood-color="#000" flood-opacity=".45"/>
  </filter>
  <g filter="url(#shadow)">
    <ellipse cx="50" cy="64" rx="29" ry="55" transform="rotate(8 50 64)" fill="url(#tireOuter)"/>
    <ellipse cx="52" cy="64" rx="20" ry="43" transform="rotate(8 52 64)" fill="url(#rimGlow)"/>
    <ellipse cx="53" cy="64" rx="15" ry="35" transform="rotate(8 53 64)" fill="#15191e"/>
    <ellipse cx="54" cy="64" rx="10" ry="25" transform="rotate(8 54 64)" fill="url(#rimInner)"/>
    <circle cx="54" cy="64" r="7" fill="#20252b"/>
    <circle cx="54" cy="64" r="3" fill="#d9dee5"/>
    <path d="M54 39v50M37 53l34 22M38 76l32-26M44 31l20 66M40 93l28-58" stroke="#e7ebf0" stroke-opacity=".78" stroke-width="2.7" stroke-linecap="round"/>
    <path d="M32 24c5 5 12 7 19 8M28 38c6 4 13 7 21 8M25 53c7 3 14 5 23 6M25 70c7 2 15 4 24 4M29 86c6 1 13 3 21 2M35 102c5 0 10 0 16-2" stroke="#080b0e" stroke-opacity=".72" stroke-width="3.2" stroke-linecap="round"/>
    <path d="M69 24c-4 5-8 9-14 12M73 40c-5 4-10 8-17 10M74 58c-5 3-11 6-18 7M72 76c-5 2-10 4-17 4M67 94c-4 1-8 2-13 1" stroke="#05070a" stroke-opacity=".55" stroke-width="3" stroke-linecap="round"/>
    <ellipse cx="50" cy="64" rx="29" ry="55" transform="rotate(8 50 64)" stroke="#05070a" stroke-opacity=".85" stroke-width="4"/>
    <ellipse cx="52" cy="64" rx="21" ry="44" transform="rotate(8 52 64)" stroke="#8f969d" stroke-opacity=".55" stroke-width="2"/>
  </g>
  <defs>
    <linearGradient id="tireOuter" x1="21" y1="15" x2="79" y2="114" gradientUnits="userSpaceOnUse">
      <stop stop-color="#9aa0a8"/>
      <stop offset=".22" stop-color="#4d535b"/>
      <stop offset=".57" stop-color="#171b20"/>
      <stop offset="1" stop-color="#05070a"/>
    </linearGradient>
    <linearGradient id="rimGlow" x1="33" y1="24" x2="75" y2="99" gradientUnits="userSpaceOnUse">
      <stop stop-color="#f8fafc"/>
      <stop offset=".32" stop-color="#9ea4ad"/>
      <stop offset=".58" stop-color="#f2f4f7"/>
      <stop offset="1" stop-color="#2b3036"/>
    </linearGradient>
    <linearGradient id="rimInner" x1="43" y1="39" x2="66" y2="89" gradientUnits="userSpaceOnUse">
      <stop stop-color="#f6f7f9"/>
      <stop offset=".5" stop-color="#717983"/>
      <stop offset="1" stop-color="#11161b"/>
    </linearGradient>
  </defs>
</svg>
